<?xml version="1.0" encoding="utf-8"?>
<!-- Generator: Adobe Illustrator 19.2.1, SVG Export Plug-In . SVG Version: 6.00 Build 0)  -->
<svg version="1.1" id="layer" xmlns="http://www.w3.org/2000/svg" xmlns:xlink="http://www.w3.org/1999/xlink" x="0px" y="0px"
	 viewBox="0 0 652 652" style="enable-background:new 0 0 652 652;" xml:space="preserve">
<style type="text/css">
	.st0{fill:#1A1918;}
</style>
<g>
	<path class="st0" d="M240.9,426.4h-10.4V216h16.2v-2.8h-58.1v2.8h16.2v210.4h-16.2v2.7h92.3v-56.7h-2.7
		C277.6,409.8,262,426.4,240.9,426.4 M412.1,426.4h-10.4V216h16.2v-2.8h-58.1v2.8H376v210.4h-16.2v2.7h92.3v-56.7h-2.7
		C448.9,409.8,433.2,426.4,412.1,426.4 M68.8,426.4h-8.6V320.6h3.7c14.4,0,22,15.3,22,38.6h2.4v-81.6h-2.4c0,19.9-6.7,40.2-22,40.2
		h-3.7V216h11c17.1,0,35.8,13.8,35.8,50.6h2.4v-53.4h-89v2.8h14.1v210.4H20.4v2.7h89.3v-56.4h-2.4
		C107.3,412.5,87.1,426.4,68.8,426.4 M617.9,372.6c0,39.9-20.2,53.7-38.5,53.7h-8.6V320.5h3.7c14.4,0,22,15.3,22,38.6h2.5v-81.6
		h-2.5c0,19.9-6.7,40.2-22,40.2h-3.7V215.9h11c17.2,0,35.8,13.8,35.8,50.6h2.5v-53.4H531v2.8h14.1v210.4H531v2.7h89.3v-56.4H617.9"
		/>
</g>
</svg>
